<?xml version="1.0" encoding="UTF-8" standalone="no"?>
<!-- Created with Inkscape (http://www.inkscape.org/) -->

<svg
   xmlns:dc="http://purl.org/dc/elements/1.1/"
   xmlns:cc="http://creativecommons.org/ns#"
   xmlns:rdf="http://www.w3.org/1999/02/22-rdf-syntax-ns#"
   xmlns:svg="http://www.w3.org/2000/svg"
   xmlns="http://www.w3.org/2000/svg"
   xmlns:sodipodi="http://sodipodi.sourceforge.net/DTD/sodipodi-0.dtd"
   xmlns:inkscape="http://www.inkscape.org/namespaces/inkscape"
   width="2979.9211"
   height="2104.7244"
   id="svg2"
   version="1.1"
   inkscape:version="0.48.2 r9819"
   sodipodi:docname="arcadebox.svg"
   inkscape:export-filename="C:\Users\madswest\Desktop\arcadebox.png"
   inkscape:export-xdpi="90"
   inkscape:export-ydpi="90">
  <sodipodi:namedview
     id="base"
     pagecolor="#ffffff"
     bordercolor="#666666"
     borderopacity="1.0"
     inkscape:pageopacity="0.0"
     inkscape:pageshadow="2"
     inkscape:zoom="0.57875767"
     inkscape:cx="1323.8656"
     inkscape:cy="411.47499"
     inkscape:document-units="mm"
     inkscape:current-layer="layer1"
     showgrid="true"
     inkscape:window-width="1440"
     inkscape:window-height="838"
     inkscape:window-x="204"
     inkscape:window-y="1192"
     inkscape:window-maximized="1"
     showguides="true"
     inkscape:guide-bbox="true">
    <inkscape:grid
       type="xygrid"
       id="grid2985"
       empspacing="5"
       visible="true"
       enabled="true"
       snapvisiblegridlinesonly="true"
       spacingx="0.5mm"
       spacingy="0.5mm"
       units="mm" />
    <sodipodi:guide
       id="guide3142"
       position="690.94488,673.22835"
       orientation="1,0" />
    <sodipodi:guide
       id="guide3144"
       position="380.90551,588.18898"
       orientation="0,1" />
    <sodipodi:guide
       id="guide3146"
       position="256.88976,628.93701"
       orientation="1,0" />
    <sodipodi:guide
       id="guide3148"
       position="442.91339,566.92913"
       orientation="1,0" />
    <sodipodi:guide
       id="guide3150"
       position="295.86614,643.11024"
       orientation="1,0" />
    <sodipodi:guide
       id="guide3152"
       position="285.23622,620.07874"
       orientation="0,1" />
    <sodipodi:guide
       id="guide3154"
       position="492.51969,481.88976"
       orientation="0,1" />
    <sodipodi:guide
       id="guide3156"
       position="327.75591,481.88976"
       orientation="0,1" />
    <sodipodi:guide
       id="guide3194"
       position="588.18898,646.65354"
       orientation="1,0" />
    <sodipodi:guide
       id="guide3214"
       position="435.82677,621.85039"
       orientation="0,1" />
  </sodipodi:namedview>
  <defs
     id="defs4" />
  <metadata
     id="metadata7">
    <rdf:RDF>
      <cc:Work
         rdf:about="">
        <dc:format>image/svg+xml</dc:format>
        <dc:type
           rdf:resource="http://purl.org/dc/dcmitype/StillImage" />
        <dc:title />
      </cc:Work>
    </rdf:RDF>
  </metadata>
  <g
     inkscape:label="Layer 1"
     inkscape:groupmode="layer"
     id="layer1"
     transform="translate(0,1052.3622)">
    <path
       transform="matrix(1.1679638,0,0,0.97330319,-116.85077,-1063.9221)"
       d="m 903.54329,1537.7953 c 0,29.3537 -19.82991,53.1496 -44.29134,53.1496 -24.46143,0 -44.29134,-23.7959 -44.29134,-53.1496 0,-29.3537 19.82991,-53.1496 44.29134,-53.1496 24.46143,0 44.29134,23.7959 44.29134,53.1496 z"
       sodipodi:ry="53.149605"
       sodipodi:rx="44.29134"
       sodipodi:cy="1537.7953"
       sodipodi:cx="859.25195"
       id="path3072"
       style="fill:none;stroke:#000000;stroke-width:1;stroke-miterlimit:4;stroke-dasharray:none"
       sodipodi:type="arc" />
    <path
       transform="matrix(1.1679638,0,0,0.97330319,21.71615,-1063.6386)"
       d="m 903.54329,1537.7953 c 0,29.3537 -19.82991,53.1496 -44.29134,53.1496 -24.46143,0 -44.29134,-23.7959 -44.29134,-53.1496 0,-29.3537 19.82991,-53.1496 44.29134,-53.1496 24.46143,0 44.29134,23.7959 44.29134,53.1496 z"
       sodipodi:ry="53.149605"
       sodipodi:rx="44.29134"
       sodipodi:cy="1537.7953"
       sodipodi:cx="859.25195"
       id="path3072-1"
       style="fill:none;stroke:#000000;stroke-width:1;stroke-miterlimit:4;stroke-dasharray:none"
       sodipodi:type="arc" />
    <path
       transform="matrix(1.1679638,0,0,0.97330319,-258.00038,-1063.9221)"
       d="m 903.54329,1537.7953 c 0,29.3537 -19.82991,53.1496 -44.29134,53.1496 -24.46143,0 -44.29134,-23.7959 -44.29134,-53.1496 0,-29.3537 19.82991,-53.1496 44.29134,-53.1496 24.46143,0 44.29134,23.7959 44.29134,53.1496 z"
       sodipodi:ry="53.149605"
       sodipodi:rx="44.29134"
       sodipodi:cy="1537.7953"
       sodipodi:cx="859.25195"
       id="path3072-7"
       style="fill:none;stroke:#000000;stroke-width:1;stroke-miterlimit:4;stroke-dasharray:none"
       sodipodi:type="arc" />
    <path
       transform="matrix(1.1679638,0,0,0.97330319,-117.96889,-925.33943)"
       d="m 903.54329,1537.7953 c 0,29.3537 -19.82991,53.1496 -44.29134,53.1496 -24.46143,0 -44.29134,-23.7959 -44.29134,-53.1496 0,-29.3537 19.82991,-53.1496 44.29134,-53.1496 24.46143,0 44.29134,23.7959 44.29134,53.1496 z"
       sodipodi:ry="53.149605"
       sodipodi:rx="44.29134"
       sodipodi:cy="1537.7953"
       sodipodi:cx="859.25195"
       id="path3072-4"
       style="fill:none;stroke:#000000;stroke-width:1;stroke-miterlimit:4;stroke-dasharray:none"
       sodipodi:type="arc" />
    <path
       transform="matrix(1.1679638,0,0,0.97330319,20.59804,-925.05593)"
       d="m 903.54329,1537.7953 c 0,29.3537 -19.82991,53.1496 -44.29134,53.1496 -24.46143,0 -44.29134,-23.7959 -44.29134,-53.1496 0,-29.3537 19.82991,-53.1496 44.29134,-53.1496 24.46143,0 44.29134,23.7959 44.29134,53.1496 z"
       sodipodi:ry="53.149605"
       sodipodi:rx="44.29134"
       sodipodi:cy="1537.7953"
       sodipodi:cx="859.25195"
       id="path3072-1-0"
       style="fill:none;stroke:#000000;stroke-width:1;stroke-miterlimit:4;stroke-dasharray:none"
       sodipodi:type="arc" />
    <path
       transform="matrix(1.1679638,0,0,0.97330319,-259.11849,-925.33943)"
       d="m 903.54329,1537.7953 c 0,29.3537 -19.82991,53.1496 -44.29134,53.1496 -24.46143,0 -44.29134,-23.7959 -44.29134,-53.1496 0,-29.3537 19.82991,-53.1496 44.29134,-53.1496 24.46143,0 44.29134,23.7959 44.29134,53.1496 z"
       sodipodi:ry="53.149605"
       sodipodi:rx="44.29134"
       sodipodi:cy="1537.7953"
       sodipodi:cx="859.25195"
       id="path3072-7-9"
       style="fill:none;stroke:#000000;stroke-width:1;stroke-miterlimit:4;stroke-dasharray:none"
       sodipodi:type="arc" />
    <path
       transform="translate(0,-1056.3622)"
       d="m 1328.7402,1555.5117 c 0,9.7846 -7.9319,17.7166 -17.7165,17.7166 -9.7846,0 -17.7166,-7.932 -17.7166,-17.7166 0,-9.7846 7.932,-17.7165 17.7166,-17.7165 9.7846,0 17.7165,7.9319 17.7165,17.7165 z"
       sodipodi:ry="17.716536"
       sodipodi:rx="17.716536"
       sodipodi:cy="1555.5117"
       sodipodi:cx="1311.0237"
       id="path3134"
       style="fill:none;stroke:#000000;stroke-width:1;stroke-miterlimit:4;stroke-dasharray:none"
       sodipodi:type="arc" />
    <path
       transform="matrix(1.0353895,0,0,1.0353895,-15.674485,-1055.4061)"
       d="m 478.34646,1502.3622 c 0,19.5691 -15.86392,35.4331 -35.43307,35.4331 -19.56914,0 -35.43307,-15.864 -35.43307,-35.4331 0,-19.5692 15.86393,-35.4331 35.43307,-35.4331 19.56915,0 35.43307,15.8639 35.43307,35.4331 z"
       sodipodi:ry="35.433071"
       sodipodi:rx="35.433071"
       sodipodi:cy="1502.3622"
       sodipodi:cx="442.91339"
       id="path3136"
       style="fill:none;stroke:#000000;stroke-width:1;stroke-miterlimit:4;stroke-dasharray:none"
       sodipodi:type="arc" />
    <path
       transform="matrix(1.1358856,0,0,1.1358856,-56.303113,-1226.2578)"
       d="m 318.89764,1458.0708 c 0,4.8923 -3.96599,8.8583 -8.85827,8.8583 -4.89229,0 -8.85827,-3.966 -8.85827,-8.8583 0,-4.8923 3.96598,-8.8583 8.85827,-8.8583 4.89228,0 8.85827,3.966 8.85827,8.8583 z"
       sodipodi:ry="8.8582678"
       sodipodi:rx="8.8582678"
       sodipodi:cy="1458.0708"
       sodipodi:cx="310.03937"
       id="path3138"
       style="fill:none;stroke:#000000;stroke-width:1;stroke-miterlimit:4;stroke-dasharray:none"
       sodipodi:type="arc" />
    <path
       transform="matrix(1.1358856,0,0,1.1358856,-56.303113,-1086.2972)"
       d="m 318.89764,1458.0708 c 0,4.8923 -3.96599,8.8583 -8.85827,8.8583 -4.89229,0 -8.85827,-3.966 -8.85827,-8.8583 0,-4.8923 3.96598,-8.8583 8.85827,-8.8583 4.89228,0 8.85827,3.966 8.85827,8.8583 z"
       sodipodi:ry="8.8582678"
       sodipodi:rx="8.8582678"
       sodipodi:cy="1458.0708"
       sodipodi:cx="310.03937"
       id="path3138-4"
       style="fill:none;stroke:#000000;stroke-width:1;stroke-miterlimit:4;stroke-dasharray:none"
       sodipodi:type="arc" />
    <path
       inkscape:export-ydpi="90"
       inkscape:export-xdpi="90"
       transform="matrix(1.1358856,0,0,1.1358856,236.01973,-1226.2578)"
       d="m 318.89764,1458.0708 c 0,4.8923 -3.96599,8.8583 -8.85827,8.8583 -4.89229,0 -8.85827,-3.966 -8.85827,-8.8583 0,-4.8923 3.96598,-8.8583 8.85827,-8.8583 4.89228,0 8.85827,3.966 8.85827,8.8583 z"
       sodipodi:ry="8.8582678"
       sodipodi:rx="8.8582678"
       sodipodi:cy="1458.0708"
       sodipodi:cx="310.03937"
       id="path3138-8"
       style="fill:none;stroke:#000000;stroke-width:1;stroke-miterlimit:4;stroke-dasharray:none"
       sodipodi:type="arc" />
    <path
       transform="matrix(1.1358856,0,0,1.1358856,236.01973,-1086.2972)"
       d="m 318.89764,1458.0708 c 0,4.8923 -3.96599,8.8583 -8.85827,8.8583 -4.89229,0 -8.85827,-3.966 -8.85827,-8.8583 0,-4.8923 3.96598,-8.8583 8.85827,-8.8583 4.89228,0 8.85827,3.966 8.85827,8.8583 z"
       sodipodi:ry="8.8582678"
       sodipodi:rx="8.8582678"
       sodipodi:cy="1458.0708"
       sodipodi:cx="310.03937"
       id="path3138-8-8"
       style="fill:none;stroke:#000000;stroke-width:1;stroke-miterlimit:4;stroke-dasharray:none"
       sodipodi:type="arc" />
    <path
       id="path3066"
       d="M 255.118110235,807.874015745 L 335.488367927,807.874015745 L 335.488367927,790.157480312 L 416.336972084,790.157480312 L 416.336972084,807.874015745 L 496.547780954,807.874015745 L 496.547780954,790.157480312 L 577.396385112,790.157480312 L 577.396385112,807.874015745 L 657.607193981,807.874015745 L 657.607193981,790.157480312 L 738.455798139,790.157480312 L 738.455798139,807.874015745 L 818.666607009,807.874015745 L 818.666607009,790.157480312 L 899.515211166,790.157480312 L 899.515211166,807.874015745 L 979.726020036,807.874015745 L 979.726020036,790.157480312 L 1060.57462419,790.157480312 L 1060.57462419,807.874015745 L 1140.94488189,807.874015745 "
       style="stroke:#000000;fill:none"
       inkscape:label="part" />
    <path
       id="path3068"
       d="M 1140.94488189,807.874015745 L 1140.94488189,872.994094488 L 1123.22834645,872.994094488 L 1123.22834645,955.352362198 L 1140.94488189,955.352362198 L 1140.94488189,1020.47244094 "
       style="stroke:#000000;fill:none"
       inkscape:label="part" />
    <path
       id="path3070"
       d="M 1140.94488189,1020.47244094 L 1060.57462419,1020.47244094 L 1060.57462419,1038.18897637 L 979.726020036,1038.18897637 L 979.726020036,1020.47244094 L 899.515211166,1020.47244094 L 899.515211166,1038.18897637 L 818.666607009,1038.18897637 L 818.666607009,1020.47244094 L 738.455798139,1020.47244094 L 738.455798139,1038.18897637 L 657.607193981,1038.18897637 L 657.607193981,1020.47244094 L 577.396385112,1020.47244094 L 577.396385112,1038.18897637 L 496.547780954,1038.18897637 L 496.547780954,1020.47244094 L 416.336972084,1020.47244094 L 416.336972084,1038.18897637 L 335.488367927,1038.18897637 L 335.488367927,1020.47244094 L 255.118110235,1020.47244094 "
       style="stroke:#000000;fill:none"
       inkscape:label="part" />
    <path
       id="path3073"
       d="M 255.118110235,1020.47244094 L 255.118110235,955.352362198 L 272.834645668,955.352362198 L 272.834645668,872.994094488 L 255.118110235,872.994094488 L 255.118110235,807.874015745 "
       style="stroke:#000000;fill:none"
       inkscape:label="part" />
    <path
       id="path3075"
       d="M 21.2598425196,272.834645668 L 86.0610236187,272.834645668 L 86.0610236187,255.118110235 L 169.057086617,255.118110235 L 169.057086617,272.834645668 L 233.858267716,272.834645668 "
       style="stroke:#000000;fill:none"
       inkscape:label="part" />
    <path
       id="path3077"
       d="M 233.858267716,272.834645668 L 233.858267716,330.886670412 L 251.574803149,330.886670412 L 251.574803149,407.133577054 L 233.858267716,407.133577054 L 233.858267716,482.742688409 L 251.574803149,482.742688409 L 251.574803149,558.989595051 L 233.858267716,558.989595051 L 233.858267716,634.598706406 L 251.574803149,634.598706406 L 251.574803149,710.845613049 L 233.858267716,710.845613049 L 233.858267716,768.897637792 "
       style="stroke:#000000;fill:none"
       inkscape:label="part" />
    <path
       id="path3079"
       d="M 233.858267716,768.897637792 L 169.057086617,768.897637792 L 169.057086617,786.614173225 L 86.0610236187,786.614173225 L 86.0610236187,768.897637792 L 21.2598425196,768.897637792 "
       style="stroke:#000000;fill:none"
       inkscape:label="part" />
    <path
       id="path3081"
       d="M 21.2598425196,768.897637792 L 21.2598425196,710.845613049 L 3.5433070866,710.845613049 L 3.5433070866,634.598706406 L 21.2598425196,634.598706406 L 21.2598425196,558.989595051 L 3.5433070866,558.989595051 L 3.5433070866,482.742688409 L 21.2598425196,482.742688409 L 21.2598425196,407.133577054 L 3.5433070866,407.133577054 L 3.5433070866,330.886670412 L 21.2598425196,330.886670412 L 21.2598425196,272.834645668 "
       style="stroke:#000000;fill:none"
       inkscape:label="part" />
    <path
       id="path3083"
       d="M 255.118110235,255.118110235 L 335.807265571,255.118110235 L 335.807265571,272.834645668 L 416.018074441,272.834645668 L 416.018074441,255.118110235 L 496.866678598,255.118110235 L 496.866678598,272.834645668 L 577.077487468,272.834645668 L 577.077487468,255.118110235 L 657.926091625,255.118110235 L 657.926091625,272.834645668 L 738.136900495,272.834645668 L 738.136900495,255.118110235 L 818.985504653,255.118110235 L 818.985504653,272.834645668 L 899.196313522,272.834645668 L 899.196313522,255.118110235 L 980.04491768,255.118110235 L 980.04491768,272.834645668 L 1060.25572655,272.834645668 L 1060.25572655,255.118110235 L 1140.94488189,255.118110235 "
       style="stroke:#000000;fill:none"
       inkscape:label="part" />
    <path
       id="path3085"
       d="M 1140.94488189,255.118110235 L 1140.94488189,331.205568056 L 1123.22834645,331.205568056 L 1123.22834645,406.81467941 L 1140.94488189,406.81467941 L 1140.94488189,483.061586053 L 1123.22834645,483.061586053 L 1123.22834645,558.670697408 L 1140.94488189,558.670697408 L 1140.94488189,634.91760405 L 1123.22834645,634.91760405 L 1123.22834645,710.526715405 L 1140.94488189,710.526715405 L 1140.94488189,786.614173225 "
       style="stroke:#000000;fill:none"
       inkscape:label="part" />
    <path
       id="path3087"
       d="M 1140.94488189,786.614173225 L 1060.25572655,786.614173225 L 1060.25572655,768.897637792 L 980.04491768,768.897637792 L 980.04491768,786.614173225 L 899.196313522,786.614173225 L 899.196313522,768.897637792 L 818.985504653,768.897637792 L 818.985504653,786.614173225 L 738.136900495,786.614173225 L 738.136900495,768.897637792 L 657.926091625,768.897637792 L 657.926091625,786.614173225 L 577.077487468,786.614173225 L 577.077487468,768.897637792 L 496.866678598,768.897637792 L 496.866678598,786.614173225 L 416.018074441,786.614173225 L 416.018074441,768.897637792 L 335.807265571,768.897637792 L 335.807265571,786.614173225 L 255.118110235,786.614173225 "
       style="stroke:#000000;fill:none"
       inkscape:label="part" />
    <path
       id="path3089"
       d="M 255.118110235,786.614173225 L 255.118110235,710.526715405 L 272.834645668,710.526715405 L 272.834645668,634.91760405 L 255.118110235,634.91760405 L 255.118110235,558.670697408 L 272.834645668,558.670697408 L 272.834645668,483.061586053 L 255.118110235,483.061586053 L 255.118110235,406.81467941 L 272.834645668,406.81467941 L 272.834645668,331.205568056 L 255.118110235,331.205568056 L 255.118110235,255.118110235 "
       style="stroke:#000000;fill:none"
       inkscape:label="part" />
    <path
       id="path3091"
       d="M 1162.2047244,272.834645668 L 1227.0059055,272.834645668 L 1227.0059055,255.118110235 L 1310.0019685,255.118110235 L 1310.0019685,272.834645668 L 1374.8031496,272.834645668 "
       style="stroke:#000000;fill:none"
       inkscape:label="part" />
    <path
       id="path3093"
       d="M 1374.8031496,272.834645668 L 1374.8031496,330.886670412 L 1392.51968503,330.886670412 L 1392.51968503,407.133577054 L 1374.8031496,407.133577054 L 1374.8031496,482.742688409 L 1392.51968503,482.742688409 L 1392.51968503,558.989595051 L 1374.8031496,558.989595051 L 1374.8031496,634.598706406 L 1392.51968503,634.598706406 L 1392.51968503,710.845613049 L 1374.8031496,710.845613049 L 1374.8031496,768.897637792 "
       style="stroke:#000000;fill:none"
       inkscape:label="part" />
    <path
       id="path3095"
       d="M 1374.8031496,768.897637792 L 1310.0019685,768.897637792 L 1310.0019685,786.614173225 L 1227.0059055,786.614173225 L 1227.0059055,768.897637792 L 1162.2047244,768.897637792 "
       style="stroke:#000000;fill:none"
       inkscape:label="part" />
    <path
       id="path3097"
       d="M 1162.2047244,768.897637792 L 1162.2047244,710.845613049 L 1144.48818897,710.845613049 L 1144.48818897,634.598706406 L 1162.2047244,634.598706406 L 1162.2047244,558.989595051 L 1144.48818897,558.989595051 L 1144.48818897,482.742688409 L 1162.2047244,482.742688409 L 1162.2047244,407.133577054 L 1144.48818897,407.133577054 L 1144.48818897,330.886670412 L 1162.2047244,330.886670412 L 1162.2047244,272.834645668 "
       style="stroke:#000000;fill:none"
       inkscape:label="part" />
    <path
       id="path3099"
       d="M 1396.06299212,255.118110235 L 1476.75214746,255.118110235 L 1476.75214746,272.834645668 L 1556.96295633,272.834645668 L 1556.96295633,255.118110235 L 1637.81156048,255.118110235 L 1637.81156048,272.834645668 L 1718.02236935,272.834645668 L 1718.02236935,255.118110235 L 1798.87097351,255.118110235 L 1798.87097351,272.834645668 L 1879.08178238,272.834645668 L 1879.08178238,255.118110235 L 1959.93038654,255.118110235 L 1959.93038654,272.834645668 L 2040.14119541,272.834645668 L 2040.14119541,255.118110235 L 2120.98979957,255.118110235 L 2120.98979957,272.834645668 L 2201.20060843,272.834645668 L 2201.20060843,255.118110235 L 2281.88976377,255.118110235 "
       style="stroke:#000000;fill:none"
       inkscape:label="part" />
    <path
       id="path3101"
       d="M 2281.88976377,255.118110235 L 2281.88976377,331.205568056 L 2264.17322834,331.205568056 L 2264.17322834,406.81467941 L 2281.88976377,406.81467941 L 2281.88976377,483.061586053 L 2264.17322834,483.061586053 L 2264.17322834,558.670697408 L 2281.88976377,558.670697408 L 2281.88976377,634.91760405 L 2264.17322834,634.91760405 L 2264.17322834,710.526715405 L 2281.88976377,710.526715405 L 2281.88976377,786.614173225 "
       style="stroke:#000000;fill:none"
       inkscape:label="part" />
    <path
       id="path3103"
       d="M 2281.88976377,786.614173225 L 2201.20060843,786.614173225 L 2201.20060843,768.897637792 L 2120.98979957,768.897637792 L 2120.98979957,786.614173225 L 2040.14119541,786.614173225 L 2040.14119541,768.897637792 L 1959.93038654,768.897637792 L 1959.93038654,786.614173225 L 1879.08178238,786.614173225 L 1879.08178238,768.897637792 L 1798.87097351,768.897637792 L 1798.87097351,786.614173225 L 1718.02236935,786.614173225 L 1718.02236935,768.897637792 L 1637.81156048,768.897637792 L 1637.81156048,786.614173225 L 1556.96295633,786.614173225 L 1556.96295633,768.897637792 L 1476.75214746,768.897637792 L 1476.75214746,786.614173225 L 1396.06299212,786.614173225 "
       style="stroke:#000000;fill:none"
       inkscape:label="part" />
    <path
       id="path3105"
       d="M 1396.06299212,786.614173225 L 1396.06299212,710.526715405 L 1413.77952755,710.526715405 L 1413.77952755,634.91760405 L 1396.06299212,634.91760405 L 1396.06299212,558.670697408 L 1413.77952755,558.670697408 L 1413.77952755,483.061586053 L 1396.06299212,483.061586053 L 1396.06299212,406.81467941 L 1413.77952755,406.81467941 L 1413.77952755,331.205568056 L 1396.06299212,331.205568056 L 1396.06299212,255.118110235 "
       style="stroke:#000000;fill:none"
       inkscape:label="part" />
    <path
       id="path3107"
       d="M 255.118110235,21.2598425196 L 335.488367927,21.2598425196 L 335.488367927,3.5433070866 L 416.336972084,3.5433070866 L 416.336972084,21.2598425196 L 496.547780954,21.2598425196 L 496.547780954,3.5433070866 L 577.396385112,3.5433070866 L 577.396385112,21.2598425196 L 657.607193981,21.2598425196 L 657.607193981,3.5433070866 L 738.455798139,3.5433070866 L 738.455798139,21.2598425196 L 818.666607009,21.2598425196 L 818.666607009,3.5433070866 L 899.515211166,3.5433070866 L 899.515211166,21.2598425196 L 979.726020036,21.2598425196 L 979.726020036,3.5433070866 L 1060.57462419,3.5433070866 L 1060.57462419,21.2598425196 L 1140.94488189,21.2598425196 "
       style="stroke:#000000;fill:none"
       inkscape:label="part" />
    <path
       id="path3109"
       d="M 1140.94488189,21.2598425196 L 1140.94488189,86.3799212625 L 1123.22834645,86.3799212625 L 1123.22834645,168.738188973 L 1140.94488189,168.738188973 L 1140.94488189,233.858267716 "
       style="stroke:#000000;fill:none"
       inkscape:label="part" />
    <path
       id="path3111"
       d="M 1140.94488189,233.858267716 L 1060.57462419,233.858267716 L 1060.57462419,251.574803149 L 979.726020036,251.574803149 L 979.726020036,233.858267716 L 899.515211166,233.858267716 L 899.515211166,251.574803149 L 818.666607009,251.574803149 L 818.666607009,233.858267716 L 738.455798139,233.858267716 L 738.455798139,251.574803149 L 657.607193981,251.574803149 L 657.607193981,233.858267716 L 577.396385112,233.858267716 L 577.396385112,251.574803149 L 496.547780954,251.574803149 L 496.547780954,233.858267716 L 416.336972084,233.858267716 L 416.336972084,251.574803149 L 335.488367927,251.574803149 L 335.488367927,233.858267716 L 255.118110235,233.858267716 "
       style="stroke:#000000;fill:none"
       inkscape:label="part" />
    <path
       id="path3113"
       d="M 255.118110235,233.858267716 L 255.118110235,168.738188973 L 272.834645668,168.738188973 L 272.834645668,86.3799212625 L 255.118110235,86.3799212625 L 255.118110235,21.2598425196 "
       style="stroke:#000000;fill:none"
       inkscape:label="part" />
  </g>
  <g
     transform="translate(0,616.53546)"
     inkscape:label="newlayer"
     inkscape:groupmode="layer"
     id="g3041" />
  <g
     id="g3116"
     inkscape:groupmode="layer"
     inkscape:label="newlayer" />
</svg>
